<?xml version="1.0" encoding="UTF-8" standalone="no"?>
<!DOCTYPE svg PUBLIC "-//W3C//DTD SVG 1.1//EN"
 "http://www.w3.org/Graphics/SVG/1.1/DTD/svg11.dtd">
<!-- Generated by graphviz version 2.50.0 (20211204.2007)
 -->
<!-- Title: Tree Pages: 1 -->
<svg width="1106pt" height="552pt"
 viewBox="0.00 0.00 1106.00 552.00" xmlns="http://www.w3.org/2000/svg" xmlns:xlink="http://www.w3.org/1999/xlink">
<g id="graph0" class="graph" transform="scale(1 1) rotate(0) translate(4 548)">
<title>Tree</title>
<polygon fill="white" stroke="transparent" points="-4,4 -4,-548 1102,-548 1102,4 -4,4"/>
<!-- 0 -->
<g id="node1" class="node">
<title>0</title>
<path fill="#f5cdb0" stroke="black" d="M838,-544C838,-544 707,-544 707,-544 701,-544 695,-538 695,-532 695,-532 695,-473 695,-473 695,-467 701,-461 707,-461 707,-461 838,-461 838,-461 844,-461 850,-467 850,-473 850,-473 850,-532 850,-532 850,-538 844,-544 838,-544"/>
<text text-anchor="middle" x="772.5" y="-528.8" font-family="Helvetica,sans-Serif" font-size="14.00">area_worst &lt;= 884.55</text>
<text text-anchor="middle" x="772.5" y="-513.8" font-family="Helvetica,sans-Serif" font-size="14.00">entropy = 0.955</text>
<text text-anchor="middle" x="772.5" y="-498.8" font-family="Helvetica,sans-Serif" font-size="14.00">samples = 426</text>
<text text-anchor="middle" x="772.5" y="-483.8" font-family="Helvetica,sans-Serif" font-size="14.00">value = [266, 160]</text>
<text text-anchor="middle" x="772.5" y="-468.8" font-family="Helvetica,sans-Serif" font-size="14.00">class = B</text>
</g>
<!-- 1 -->
<g id="node2" class="node">
<title>1</title>
<path fill="#e88f4f" stroke="black" d="M719,-425C719,-425 528,-425 528,-425 522,-425 516,-419 516,-413 516,-413 516,-354 516,-354 516,-348 522,-342 528,-342 528,-342 719,-342 719,-342 725,-342 731,-348 731,-354 731,-354 731,-413 731,-413 731,-419 725,-425 719,-425"/>
<text text-anchor="middle" x="623.5" y="-409.8" font-family="Helvetica,sans-Serif" font-size="14.00">concave points_worst &lt;= 0.136</text>
<text text-anchor="middle" x="623.5" y="-394.8" font-family="Helvetica,sans-Serif" font-size="14.00">entropy = 0.469</text>
<text text-anchor="middle" x="623.5" y="-379.8" font-family="Helvetica,sans-Serif" font-size="14.00">samples = 290</text>
<text text-anchor="middle" x="623.5" y="-364.8" font-family="Helvetica,sans-Serif" font-size="14.00">value = [261, 29]</text>
<text text-anchor="middle" x="623.5" y="-349.8" font-family="Helvetica,sans-Serif" font-size="14.00">class = B</text>
</g>
<!-- 0&#45;&gt;1 -->
<g id="edge1" class="edge">
<title>0&#45;&gt;1</title>
<path fill="none" stroke="black" d="M720.81,-460.91C708.67,-451.38 695.64,-441.15 683.19,-431.37"/>
<polygon fill="black" stroke="black" points="685.13,-428.44 675.1,-425.02 680.81,-433.95 685.13,-428.44"/>
<text text-anchor="middle" x="678.09" y="-446.14" font-family="Helvetica,sans-Serif" font-size="14.00">True</text>
</g>
<!-- 14 -->
<g id="node15" class="node">
<title>14</title>
<path fill="#41a1e6" stroke="black" d="M958,-425C958,-425 803,-425 803,-425 797,-425 791,-419 791,-413 791,-413 791,-354 791,-354 791,-348 797,-342 803,-342 803,-342 958,-342 958,-342 964,-342 970,-348 970,-354 970,-354 970,-413 970,-413 970,-419 964,-425 958,-425"/>
<text text-anchor="middle" x="880.5" y="-409.8" font-family="Helvetica,sans-Serif" font-size="14.00">concavity_mean &lt;= 0.072</text>
<text text-anchor="middle" x="880.5" y="-394.8" font-family="Helvetica,sans-Serif" font-size="14.00">entropy = 0.227</text>
<text text-anchor="middle" x="880.5" y="-379.8" font-family="Helvetica,sans-Serif" font-size="14.00">samples = 136</text>
<text text-anchor="middle" x="880.5" y="-364.8" font-family="Helvetica,sans-Serif" font-size="14.00">value = [5, 131]</text>
<text text-anchor="middle" x="880.5" y="-349.8" font-family="Helvetica,sans-Serif" font-size="14.00">class = M</text>
</g>
<!-- 0&#45;&gt;14 -->
<g id="edge14" class="edge">
<title>0&#45;&gt;14</title>
<path fill="none" stroke="black" d="M809.97,-460.91C818.43,-451.74 827.49,-441.93 836.2,-432.49"/>
<polygon fill="black" stroke="black" points="838.89,-434.74 843.1,-425.02 833.74,-429.99 838.89,-434.74"/>
<text text-anchor="middle" x="844.1" y="-446.3" font-family="Helvetica,sans-Serif" font-size="14.00">False</text>
</g>
<!-- 2 -->
<g id="node3" class="node">
<title>2</title>
<path fill="#e6853f" stroke="black" d="M440.5,-306C440.5,-306 292.5,-306 292.5,-306 286.5,-306 280.5,-300 280.5,-294 280.5,-294 280.5,-235 280.5,-235 280.5,-229 286.5,-223 292.5,-223 292.5,-223 440.5,-223 440.5,-223 446.5,-223 452.5,-229 452.5,-235 452.5,-235 452.5,-294 452.5,-294 452.5,-300 446.5,-306 440.5,-306"/>
<text text-anchor="middle" x="366.5" y="-290.8" font-family="Helvetica,sans-Serif" font-size="14.00">texture_mean &lt;= 21.415</text>
<text text-anchor="middle" x="366.5" y="-275.8" font-family="Helvetica,sans-Serif" font-size="14.00">entropy = 0.183</text>
<text text-anchor="middle" x="366.5" y="-260.8" font-family="Helvetica,sans-Serif" font-size="14.00">samples = 253</text>
<text text-anchor="middle" x="366.5" y="-245.8" font-family="Helvetica,sans-Serif" font-size="14.00">value = [246, 7]</text>
<text text-anchor="middle" x="366.5" y="-230.8" font-family="Helvetica,sans-Serif" font-size="14.00">class = B</text>
</g>
<!-- 1&#45;&gt;2 -->
<g id="edge2" class="edge">
<title>1&#45;&gt;2</title>
<path fill="none" stroke="black" d="M534.34,-341.91C511.04,-331.3 485.84,-319.83 462.22,-309.08"/>
<polygon fill="black" stroke="black" points="463.46,-305.79 452.91,-304.84 460.56,-312.17 463.46,-305.79"/>
</g>
<!-- 9 -->
<g id="node10" class="node">
<title>9</title>
<path fill="#c0e0f7" stroke="black" d="M688.5,-306C688.5,-306 558.5,-306 558.5,-306 552.5,-306 546.5,-300 546.5,-294 546.5,-294 546.5,-235 546.5,-235 546.5,-229 552.5,-223 558.5,-223 558.5,-223 688.5,-223 688.5,-223 694.5,-223 700.5,-229 700.5,-235 700.5,-235 700.5,-294 700.5,-294 700.5,-300 694.5,-306 688.5,-306"/>
<text text-anchor="middle" x="623.5" y="-290.8" font-family="Helvetica,sans-Serif" font-size="14.00">texture_worst &lt;= 26.9</text>
<text text-anchor="middle" x="623.5" y="-275.8" font-family="Helvetica,sans-Serif" font-size="14.00">entropy = 0.974</text>
<text text-anchor="middle" x="623.5" y="-260.8" font-family="Helvetica,sans-Serif" font-size="14.00">samples = 37</text>
<text text-anchor="middle" x="623.5" y="-245.8" font-family="Helvetica,sans-Serif" font-size="14.00">value = [15, 22]</text>
<text text-anchor="middle" x="623.5" y="-230.8" font-family="Helvetica,sans-Serif" font-size="14.00">class = M</text>
</g>
<!-- 1&#45;&gt;9 -->
<g id="edge9" class="edge">
<title>1&#45;&gt;9</title>
<path fill="none" stroke="black" d="M623.5,-341.91C623.5,-333.65 623.5,-324.86 623.5,-316.3"/>
<polygon fill="black" stroke="black" points="627,-316.02 623.5,-306.02 620,-316.02 627,-316.02"/>
</g>
<!-- 3 -->
<g id="node4" class="node">
<title>3</title>
<path fill="#e5823a" stroke="black" d="M246,-187C246,-187 133,-187 133,-187 127,-187 121,-181 121,-175 121,-175 121,-116 121,-116 121,-110 127,-104 133,-104 133,-104 246,-104 246,-104 252,-104 258,-110 258,-116 258,-116 258,-175 258,-175 258,-181 252,-187 246,-187"/>
<text text-anchor="middle" x="189.5" y="-171.8" font-family="Helvetica,sans-Serif" font-size="14.00">area_se &lt;= 48.975</text>
<text text-anchor="middle" x="189.5" y="-156.8" font-family="Helvetica,sans-Serif" font-size="14.00">entropy = 0.044</text>
<text text-anchor="middle" x="189.5" y="-141.8" font-family="Helvetica,sans-Serif" font-size="14.00">samples = 209</text>
<text text-anchor="middle" x="189.5" y="-126.8" font-family="Helvetica,sans-Serif" font-size="14.00">value = [208, 1]</text>
<text text-anchor="middle" x="189.5" y="-111.8" font-family="Helvetica,sans-Serif" font-size="14.00">class = B</text>
</g>
<!-- 2&#45;&gt;3 -->
<g id="edge3" class="edge">
<title>2&#45;&gt;3</title>
<path fill="none" stroke="black" d="M305.09,-222.91C290.4,-213.2 274.61,-202.76 259.56,-192.81"/>
<polygon fill="black" stroke="black" points="261.07,-189.62 250.8,-187.02 257.21,-195.45 261.07,-189.62"/>
</g>
<!-- 6 -->
<g id="node7" class="node">
<title>6</title>
<path fill="#e99558" stroke="black" d="M432,-187C432,-187 301,-187 301,-187 295,-187 289,-181 289,-175 289,-175 289,-116 289,-116 289,-110 295,-104 301,-104 301,-104 432,-104 432,-104 438,-104 444,-110 444,-116 444,-116 444,-175 444,-175 444,-181 438,-187 432,-187"/>
<text text-anchor="middle" x="366.5" y="-171.8" font-family="Helvetica,sans-Serif" font-size="14.00">area_worst &lt;= 646.45</text>
<text text-anchor="middle" x="366.5" y="-156.8" font-family="Helvetica,sans-Serif" font-size="14.00">entropy = 0.575</text>
<text text-anchor="middle" x="366.5" y="-141.8" font-family="Helvetica,sans-Serif" font-size="14.00">samples = 44</text>
<text text-anchor="middle" x="366.5" y="-126.8" font-family="Helvetica,sans-Serif" font-size="14.00">value = [38, 6]</text>
<text text-anchor="middle" x="366.5" y="-111.8" font-family="Helvetica,sans-Serif" font-size="14.00">class = B</text>
</g>
<!-- 2&#45;&gt;6 -->
<g id="edge6" class="edge">
<title>2&#45;&gt;6</title>
<path fill="none" stroke="black" d="M366.5,-222.91C366.5,-214.65 366.5,-205.86 366.5,-197.3"/>
<polygon fill="black" stroke="black" points="370,-197.02 366.5,-187.02 363,-197.02 370,-197.02"/>
</g>
<!-- 4 -->
<g id="node5" class="node">
<title>4</title>
<path fill="#e58139" stroke="black" d="M101,-68C101,-68 12,-68 12,-68 6,-68 0,-62 0,-56 0,-56 0,-12 0,-12 0,-6 6,0 12,0 12,0 101,0 101,0 107,0 113,-6 113,-12 113,-12 113,-56 113,-56 113,-62 107,-68 101,-68"/>
<text text-anchor="middle" x="56.5" y="-52.8" font-family="Helvetica,sans-Serif" font-size="14.00">entropy = 0.0</text>
<text text-anchor="middle" x="56.5" y="-37.8" font-family="Helvetica,sans-Serif" font-size="14.00">samples = 206</text>
<text text-anchor="middle" x="56.5" y="-22.8" font-family="Helvetica,sans-Serif" font-size="14.00">value = [206, 0]</text>
<text text-anchor="middle" x="56.5" y="-7.8" font-family="Helvetica,sans-Serif" font-size="14.00">class = B</text>
</g>
<!-- 3&#45;&gt;4 -->
<g id="edge4" class="edge">
<title>3&#45;&gt;4</title>
<path fill="none" stroke="black" d="M139.98,-103.73C128.45,-94.24 116.2,-84.16 104.74,-74.72"/>
<polygon fill="black" stroke="black" points="106.89,-71.95 96.95,-68.3 102.44,-77.36 106.89,-71.95"/>
</g>
<!-- 5 -->
<g id="node6" class="node">
<title>5</title>
<path fill="#f2c09c" stroke="black" d="M235.5,-68C235.5,-68 143.5,-68 143.5,-68 137.5,-68 131.5,-62 131.5,-56 131.5,-56 131.5,-12 131.5,-12 131.5,-6 137.5,0 143.5,0 143.5,0 235.5,0 235.5,0 241.5,0 247.5,-6 247.5,-12 247.5,-12 247.5,-56 247.5,-56 247.5,-62 241.5,-68 235.5,-68"/>
<text text-anchor="middle" x="189.5" y="-52.8" font-family="Helvetica,sans-Serif" font-size="14.00">entropy = 0.918</text>
<text text-anchor="middle" x="189.5" y="-37.8" font-family="Helvetica,sans-Serif" font-size="14.00">samples = 3</text>
<text text-anchor="middle" x="189.5" y="-22.8" font-family="Helvetica,sans-Serif" font-size="14.00">value = [2, 1]</text>
<text text-anchor="middle" x="189.5" y="-7.8" font-family="Helvetica,sans-Serif" font-size="14.00">class = B</text>
</g>
<!-- 3&#45;&gt;5 -->
<g id="edge5" class="edge">
<title>3&#45;&gt;5</title>
<path fill="none" stroke="black" d="M189.5,-103.73C189.5,-95.52 189.5,-86.86 189.5,-78.56"/>
<polygon fill="black" stroke="black" points="193,-78.3 189.5,-68.3 186,-78.3 193,-78.3"/>
</g>
<!-- 7 -->
<g id="node8" class="node">
<title>7</title>
<path fill="#e58139" stroke="black" d="M359,-68C359,-68 278,-68 278,-68 272,-68 266,-62 266,-56 266,-56 266,-12 266,-12 266,-6 272,0 278,0 278,0 359,0 359,0 365,0 371,-6 371,-12 371,-12 371,-56 371,-56 371,-62 365,-68 359,-68"/>
<text text-anchor="middle" x="318.5" y="-52.8" font-family="Helvetica,sans-Serif" font-size="14.00">entropy = 0.0</text>
<text text-anchor="middle" x="318.5" y="-37.8" font-family="Helvetica,sans-Serif" font-size="14.00">samples = 30</text>
<text text-anchor="middle" x="318.5" y="-22.8" font-family="Helvetica,sans-Serif" font-size="14.00">value = [30, 0]</text>
<text text-anchor="middle" x="318.5" y="-7.8" font-family="Helvetica,sans-Serif" font-size="14.00">class = B</text>
</g>
<!-- 6&#45;&gt;7 -->
<g id="edge7" class="edge">
<title>6&#45;&gt;7</title>
<path fill="none" stroke="black" d="M348.63,-103.73C344.91,-95.24 340.98,-86.28 337.23,-77.73"/>
<polygon fill="black" stroke="black" points="340.32,-76.05 333.1,-68.3 333.91,-78.86 340.32,-76.05"/>
</g>
<!-- 8 -->
<g id="node9" class="node">
<title>8</title>
<path fill="#f8e0ce" stroke="black" d="M493.5,-68C493.5,-68 401.5,-68 401.5,-68 395.5,-68 389.5,-62 389.5,-56 389.5,-56 389.5,-12 389.5,-12 389.5,-6 395.5,0 401.5,0 401.5,0 493.5,0 493.5,0 499.5,0 505.5,-6 505.5,-12 505.5,-12 505.5,-56 505.5,-56 505.5,-62 499.5,-68 493.5,-68"/>
<text text-anchor="middle" x="447.5" y="-52.8" font-family="Helvetica,sans-Serif" font-size="14.00">entropy = 0.985</text>
<text text-anchor="middle" x="447.5" y="-37.8" font-family="Helvetica,sans-Serif" font-size="14.00">samples = 14</text>
<text text-anchor="middle" x="447.5" y="-22.8" font-family="Helvetica,sans-Serif" font-size="14.00">value = [8, 6]</text>
<text text-anchor="middle" x="447.5" y="-7.8" font-family="Helvetica,sans-Serif" font-size="14.00">class = B</text>
</g>
<!-- 6&#45;&gt;8 -->
<g id="edge8" class="edge">
<title>6&#45;&gt;8</title>
<path fill="none" stroke="black" d="M396.66,-103.73C403.27,-94.79 410.28,-85.32 416.91,-76.36"/>
<polygon fill="black" stroke="black" points="419.73,-78.42 422.87,-68.3 414.11,-74.26 419.73,-78.42"/>
</g>
<!-- 10 -->
<g id="node11" class="node">
<title>10</title>
<path fill="#efb388" stroke="black" d="M677,-187C677,-187 486,-187 486,-187 480,-187 474,-181 474,-175 474,-175 474,-116 474,-116 474,-110 480,-104 486,-104 486,-104 677,-104 677,-104 683,-104 689,-110 689,-116 689,-116 689,-175 689,-175 689,-181 683,-187 677,-187"/>
<text text-anchor="middle" x="581.5" y="-171.8" font-family="Helvetica,sans-Serif" font-size="14.00">concave points_worst &lt;= 0.172</text>
<text text-anchor="middle" x="581.5" y="-156.8" font-family="Helvetica,sans-Serif" font-size="14.00">entropy = 0.863</text>
<text text-anchor="middle" x="581.5" y="-141.8" font-family="Helvetica,sans-Serif" font-size="14.00">samples = 21</text>
<text text-anchor="middle" x="581.5" y="-126.8" font-family="Helvetica,sans-Serif" font-size="14.00">value = [15, 6]</text>
<text text-anchor="middle" x="581.5" y="-111.8" font-family="Helvetica,sans-Serif" font-size="14.00">class = B</text>
</g>
<!-- 9&#45;&gt;10 -->
<g id="edge10" class="edge">
<title>9&#45;&gt;10</title>
<path fill="none" stroke="black" d="M608.93,-222.91C605.87,-214.38 602.6,-205.28 599.43,-196.46"/>
<polygon fill="black" stroke="black" points="602.72,-195.25 596.05,-187.02 596.13,-197.62 602.72,-195.25"/>
</g>
<!-- 13 -->
<g id="node14" class="node">
<title>13</title>
<path fill="#399de5" stroke="black" d="M800,-179.5C800,-179.5 719,-179.5 719,-179.5 713,-179.5 707,-173.5 707,-167.5 707,-167.5 707,-123.5 707,-123.5 707,-117.5 713,-111.5 719,-111.5 719,-111.5 800,-111.5 800,-111.5 806,-111.5 812,-117.5 812,-123.5 812,-123.5 812,-167.5 812,-167.5 812,-173.5 806,-179.5 800,-179.5"/>
<text text-anchor="middle" x="759.5" y="-164.3" font-family="Helvetica,sans-Serif" font-size="14.00">entropy = 0.0</text>
<text text-anchor="middle" x="759.5" y="-149.3" font-family="Helvetica,sans-Serif" font-size="14.00">samples = 16</text>
<text text-anchor="middle" x="759.5" y="-134.3" font-family="Helvetica,sans-Serif" font-size="14.00">value = [0, 16]</text>
<text text-anchor="middle" x="759.5" y="-119.3" font-family="Helvetica,sans-Serif" font-size="14.00">class = M</text>
</g>
<!-- 9&#45;&gt;13 -->
<g id="edge13" class="edge">
<title>9&#45;&gt;13</title>
<path fill="none" stroke="black" d="M670.68,-222.91C684.41,-211.1 699.39,-198.22 713.06,-186.45"/>
<polygon fill="black" stroke="black" points="715.65,-188.84 720.95,-179.67 711.08,-183.54 715.65,-188.84"/>
</g>
<!-- 11 -->
<g id="node12" class="node">
<title>11</title>
<path fill="#e89253" stroke="black" d="M627.5,-68C627.5,-68 535.5,-68 535.5,-68 529.5,-68 523.5,-62 523.5,-56 523.5,-56 523.5,-12 523.5,-12 523.5,-6 529.5,0 535.5,0 535.5,0 627.5,0 627.5,0 633.5,0 639.5,-6 639.5,-12 639.5,-12 639.5,-56 639.5,-56 639.5,-62 633.5,-68 627.5,-68"/>
<text text-anchor="middle" x="581.5" y="-52.8" font-family="Helvetica,sans-Serif" font-size="14.00">entropy = 0.523</text>
<text text-anchor="middle" x="581.5" y="-37.8" font-family="Helvetica,sans-Serif" font-size="14.00">samples = 17</text>
<text text-anchor="middle" x="581.5" y="-22.8" font-family="Helvetica,sans-Serif" font-size="14.00">value = [15, 2]</text>
<text text-anchor="middle" x="581.5" y="-7.8" font-family="Helvetica,sans-Serif" font-size="14.00">class = B</text>
</g>
<!-- 10&#45;&gt;11 -->
<g id="edge11" class="edge">
<title>10&#45;&gt;11</title>
<path fill="none" stroke="black" d="M581.5,-103.73C581.5,-95.52 581.5,-86.86 581.5,-78.56"/>
<polygon fill="black" stroke="black" points="585,-78.3 581.5,-68.3 578,-78.3 585,-78.3"/>
</g>
<!-- 12 -->
<g id="node13" class="node">
<title>12</title>
<path fill="#399de5" stroke="black" d="M745.5,-68C745.5,-68 669.5,-68 669.5,-68 663.5,-68 657.5,-62 657.5,-56 657.5,-56 657.5,-12 657.5,-12 657.5,-6 663.5,0 669.5,0 669.5,0 745.5,0 745.5,0 751.5,0 757.5,-6 757.5,-12 757.5,-12 757.5,-56 757.5,-56 757.5,-62 751.5,-68 745.5,-68"/>
<text text-anchor="middle" x="707.5" y="-52.8" font-family="Helvetica,sans-Serif" font-size="14.00">entropy = 0.0</text>
<text text-anchor="middle" x="707.5" y="-37.8" font-family="Helvetica,sans-Serif" font-size="14.00">samples = 4</text>
<text text-anchor="middle" x="707.5" y="-22.8" font-family="Helvetica,sans-Serif" font-size="14.00">value = [0, 4]</text>
<text text-anchor="middle" x="707.5" y="-7.8" font-family="Helvetica,sans-Serif" font-size="14.00">class = M</text>
</g>
<!-- 10&#45;&gt;12 -->
<g id="edge12" class="edge">
<title>10&#45;&gt;12</title>
<path fill="none" stroke="black" d="M628.42,-103.73C639.23,-94.33 650.71,-84.35 661.49,-74.99"/>
<polygon fill="black" stroke="black" points="663.93,-77.5 669.18,-68.3 659.34,-72.22 663.93,-77.5"/>
</g>
<!-- 15 -->
<g id="node16" class="node">
<title>15</title>
<path fill="#b5daf5" stroke="black" d="M954.5,-306C954.5,-306 806.5,-306 806.5,-306 800.5,-306 794.5,-300 794.5,-294 794.5,-294 794.5,-235 794.5,-235 794.5,-229 800.5,-223 806.5,-223 806.5,-223 954.5,-223 954.5,-223 960.5,-223 966.5,-229 966.5,-235 966.5,-235 966.5,-294 966.5,-294 966.5,-300 960.5,-306 954.5,-306"/>
<text text-anchor="middle" x="880.5" y="-290.8" font-family="Helvetica,sans-Serif" font-size="14.00">texture_mean &lt;= 18.835</text>
<text text-anchor="middle" x="880.5" y="-275.8" font-family="Helvetica,sans-Serif" font-size="14.00">entropy = 0.961</text>
<text text-anchor="middle" x="880.5" y="-260.8" font-family="Helvetica,sans-Serif" font-size="14.00">samples = 13</text>
<text text-anchor="middle" x="880.5" y="-245.8" font-family="Helvetica,sans-Serif" font-size="14.00">value = [5, 8]</text>
<text text-anchor="middle" x="880.5" y="-230.8" font-family="Helvetica,sans-Serif" font-size="14.00">class = M</text>
</g>
<!-- 14&#45;&gt;15 -->
<g id="edge15" class="edge">
<title>14&#45;&gt;15</title>
<path fill="none" stroke="black" d="M880.5,-341.91C880.5,-333.65 880.5,-324.86 880.5,-316.3"/>
<polygon fill="black" stroke="black" points="884,-316.02 880.5,-306.02 877,-316.02 884,-316.02"/>
</g>
<!-- 18 -->
<g id="node19" class="node">
<title>18</title>
<path fill="#399de5" stroke="black" d="M1086,-298.5C1086,-298.5 997,-298.5 997,-298.5 991,-298.5 985,-292.5 985,-286.5 985,-286.5 985,-242.5 985,-242.5 985,-236.5 991,-230.5 997,-230.5 997,-230.5 1086,-230.5 1086,-230.5 1092,-230.5 1098,-236.5 1098,-242.5 1098,-242.5 1098,-286.5 1098,-286.5 1098,-292.5 1092,-298.5 1086,-298.5"/>
<text text-anchor="middle" x="1041.5" y="-283.3" font-family="Helvetica,sans-Serif" font-size="14.00">entropy = 0.0</text>
<text text-anchor="middle" x="1041.5" y="-268.3" font-family="Helvetica,sans-Serif" font-size="14.00">samples = 123</text>
<text text-anchor="middle" x="1041.5" y="-253.3" font-family="Helvetica,sans-Serif" font-size="14.00">value = [0, 123]</text>
<text text-anchor="middle" x="1041.5" y="-238.3" font-family="Helvetica,sans-Serif" font-size="14.00">class = M</text>
</g>
<!-- 14&#45;&gt;18 -->
<g id="edge18" class="edge">
<title>14&#45;&gt;18</title>
<path fill="none" stroke="black" d="M936.36,-341.91C952.91,-329.88 971,-316.73 987.43,-304.79"/>
<polygon fill="black" stroke="black" points="989.83,-307.38 995.86,-298.67 985.71,-301.71 989.83,-307.38"/>
</g>
<!-- 16 -->
<g id="node17" class="node">
<title>16</title>
<path fill="#e58139" stroke="black" d="M918.5,-179.5C918.5,-179.5 842.5,-179.5 842.5,-179.5 836.5,-179.5 830.5,-173.5 830.5,-167.5 830.5,-167.5 830.5,-123.5 830.5,-123.5 830.5,-117.5 836.5,-111.5 842.5,-111.5 842.5,-111.5 918.5,-111.5 918.5,-111.5 924.5,-111.5 930.5,-117.5 930.5,-123.5 930.5,-123.5 930.5,-167.5 930.5,-167.5 930.5,-173.5 924.5,-179.5 918.5,-179.5"/>
<text text-anchor="middle" x="880.5" y="-164.3" font-family="Helvetica,sans-Serif" font-size="14.00">entropy = 0.0</text>
<text text-anchor="middle" x="880.5" y="-149.3" font-family="Helvetica,sans-Serif" font-size="14.00">samples = 5</text>
<text text-anchor="middle" x="880.5" y="-134.3" font-family="Helvetica,sans-Serif" font-size="14.00">value = [5, 0]</text>
<text text-anchor="middle" x="880.5" y="-119.3" font-family="Helvetica,sans-Serif" font-size="14.00">class = B</text>
</g>
<!-- 15&#45;&gt;16 -->
<g id="edge16" class="edge">
<title>15&#45;&gt;16</title>
<path fill="none" stroke="black" d="M880.5,-222.91C880.5,-212.2 880.5,-200.62 880.5,-189.78"/>
<polygon fill="black" stroke="black" points="884,-189.67 880.5,-179.67 877,-189.67 884,-189.67"/>
</g>
<!-- 17 -->
<g id="node18" class="node">
<title>17</title>
<path fill="#399de5" stroke="black" d="M1036.5,-179.5C1036.5,-179.5 960.5,-179.5 960.5,-179.5 954.5,-179.5 948.5,-173.5 948.5,-167.5 948.5,-167.5 948.5,-123.5 948.5,-123.5 948.5,-117.5 954.5,-111.5 960.5,-111.5 960.5,-111.5 1036.5,-111.5 1036.5,-111.5 1042.5,-111.5 1048.5,-117.5 1048.5,-123.5 1048.5,-123.5 1048.5,-167.5 1048.5,-167.5 1048.5,-173.5 1042.5,-179.5 1036.5,-179.5"/>
<text text-anchor="middle" x="998.5" y="-164.3" font-family="Helvetica,sans-Serif" font-size="14.00">entropy = 0.0</text>
<text text-anchor="middle" x="998.5" y="-149.3" font-family="Helvetica,sans-Serif" font-size="14.00">samples = 8</text>
<text text-anchor="middle" x="998.5" y="-134.3" font-family="Helvetica,sans-Serif" font-size="14.00">value = [0, 8]</text>
<text text-anchor="middle" x="998.5" y="-119.3" font-family="Helvetica,sans-Serif" font-size="14.00">class = M</text>
</g>
<!-- 15&#45;&gt;17 -->
<g id="edge17" class="edge">
<title>15&#45;&gt;17</title>
<path fill="none" stroke="black" d="M921.44,-222.91C933.24,-211.21 946.1,-198.46 957.88,-186.78"/>
<polygon fill="black" stroke="black" points="960.41,-189.19 965.05,-179.67 955.48,-184.22 960.41,-189.19"/>
</g>
</g>
</svg>
