<?xml version="1.0" encoding="UTF-8" standalone="no"?>
<!DOCTYPE svg PUBLIC "-//W3C//DTD SVG 1.1//EN"
 "http://www.w3.org/Graphics/SVG/1.1/DTD/svg11.dtd">
<!-- Generated by graphviz version 2.50.0 (20211204.2007)
 -->
<!-- Title: Tree Pages: 1 -->
<svg width="811pt" height="433pt"
 viewBox="0.00 0.00 810.50 433.00" xmlns="http://www.w3.org/2000/svg" xmlns:xlink="http://www.w3.org/1999/xlink">
<g id="graph0" class="graph" transform="scale(1 1) rotate(0) translate(4 429)">
<title>Tree</title>
<polygon fill="white" stroke="transparent" points="-4,4 -4,-429 806.5,-429 806.5,4 -4,4"/>
<!-- 0 -->
<g id="node1" class="node">
<title>0</title>
<path fill="#f5cdb0" stroke="black" d="M543.5,-425C543.5,-425 412.5,-425 412.5,-425 406.5,-425 400.5,-419 400.5,-413 400.5,-413 400.5,-354 400.5,-354 400.5,-348 406.5,-342 412.5,-342 412.5,-342 543.5,-342 543.5,-342 549.5,-342 555.5,-348 555.5,-354 555.5,-354 555.5,-413 555.5,-413 555.5,-419 549.5,-425 543.5,-425"/>
<text text-anchor="middle" x="478" y="-409.8" font-family="Helvetica,sans-Serif" font-size="14.00">area_worst &lt;= 884.55</text>
<text text-anchor="middle" x="478" y="-394.8" font-family="Helvetica,sans-Serif" font-size="14.00">entropy = 0.955</text>
<text text-anchor="middle" x="478" y="-379.8" font-family="Helvetica,sans-Serif" font-size="14.00">samples = 426</text>
<text text-anchor="middle" x="478" y="-364.8" font-family="Helvetica,sans-Serif" font-size="14.00">value = [266, 160]</text>
<text text-anchor="middle" x="478" y="-349.8" font-family="Helvetica,sans-Serif" font-size="14.00">class = B</text>
</g>
<!-- 1 -->
<g id="node2" class="node">
<title>1</title>
<path fill="#e88f4f" stroke="black" d="M466.5,-306C466.5,-306 275.5,-306 275.5,-306 269.5,-306 263.5,-300 263.5,-294 263.5,-294 263.5,-235 263.5,-235 263.5,-229 269.5,-223 275.5,-223 275.5,-223 466.5,-223 466.5,-223 472.5,-223 478.5,-229 478.5,-235 478.5,-235 478.5,-294 478.5,-294 478.5,-300 472.5,-306 466.5,-306"/>
<text text-anchor="middle" x="371" y="-290.8" font-family="Helvetica,sans-Serif" font-size="14.00">concave points_worst &lt;= 0.136</text>
<text text-anchor="middle" x="371" y="-275.8" font-family="Helvetica,sans-Serif" font-size="14.00">entropy = 0.469</text>
<text text-anchor="middle" x="371" y="-260.8" font-family="Helvetica,sans-Serif" font-size="14.00">samples = 290</text>
<text text-anchor="middle" x="371" y="-245.8" font-family="Helvetica,sans-Serif" font-size="14.00">value = [261, 29]</text>
<text text-anchor="middle" x="371" y="-230.8" font-family="Helvetica,sans-Serif" font-size="14.00">class = B</text>
</g>
<!-- 0&#45;&gt;1 -->
<g id="edge1" class="edge">
<title>0&#45;&gt;1</title>
<path fill="none" stroke="black" d="M440.88,-341.91C432.49,-332.74 423.52,-322.93 414.89,-313.49"/>
<polygon fill="black" stroke="black" points="417.39,-311.04 408.06,-306.02 412.22,-315.76 417.39,-311.04"/>
<text text-anchor="middle" x="406.94" y="-327.3" font-family="Helvetica,sans-Serif" font-size="14.00">True</text>
</g>
<!-- 8 -->
<g id="node9" class="node">
<title>8</title>
<path fill="#41a1e6" stroke="black" d="M663.5,-306C663.5,-306 508.5,-306 508.5,-306 502.5,-306 496.5,-300 496.5,-294 496.5,-294 496.5,-235 496.5,-235 496.5,-229 502.5,-223 508.5,-223 508.5,-223 663.5,-223 663.5,-223 669.5,-223 675.5,-229 675.5,-235 675.5,-235 675.5,-294 675.5,-294 675.5,-300 669.5,-306 663.5,-306"/>
<text text-anchor="middle" x="586" y="-290.8" font-family="Helvetica,sans-Serif" font-size="14.00">concavity_mean &lt;= 0.072</text>
<text text-anchor="middle" x="586" y="-275.8" font-family="Helvetica,sans-Serif" font-size="14.00">entropy = 0.227</text>
<text text-anchor="middle" x="586" y="-260.8" font-family="Helvetica,sans-Serif" font-size="14.00">samples = 136</text>
<text text-anchor="middle" x="586" y="-245.8" font-family="Helvetica,sans-Serif" font-size="14.00">value = [5, 131]</text>
<text text-anchor="middle" x="586" y="-230.8" font-family="Helvetica,sans-Serif" font-size="14.00">class = M</text>
</g>
<!-- 0&#45;&gt;8 -->
<g id="edge8" class="edge">
<title>0&#45;&gt;8</title>
<path fill="none" stroke="black" d="M515.47,-341.91C523.93,-332.74 532.99,-322.93 541.7,-313.49"/>
<polygon fill="black" stroke="black" points="544.39,-315.74 548.6,-306.02 539.24,-310.99 544.39,-315.74"/>
<text text-anchor="middle" x="549.6" y="-327.3" font-family="Helvetica,sans-Serif" font-size="14.00">False</text>
</g>
<!-- 2 -->
<g id="node3" class="node">
<title>2</title>
<path fill="#e6853f" stroke="black" d="M265,-187C265,-187 117,-187 117,-187 111,-187 105,-181 105,-175 105,-175 105,-116 105,-116 105,-110 111,-104 117,-104 117,-104 265,-104 265,-104 271,-104 277,-110 277,-116 277,-116 277,-175 277,-175 277,-181 271,-187 265,-187"/>
<text text-anchor="middle" x="191" y="-171.8" font-family="Helvetica,sans-Serif" font-size="14.00">texture_mean &lt;= 21.415</text>
<text text-anchor="middle" x="191" y="-156.8" font-family="Helvetica,sans-Serif" font-size="14.00">entropy = 0.183</text>
<text text-anchor="middle" x="191" y="-141.8" font-family="Helvetica,sans-Serif" font-size="14.00">samples = 253</text>
<text text-anchor="middle" x="191" y="-126.8" font-family="Helvetica,sans-Serif" font-size="14.00">value = [246, 7]</text>
<text text-anchor="middle" x="191" y="-111.8" font-family="Helvetica,sans-Serif" font-size="14.00">class = B</text>
</g>
<!-- 1&#45;&gt;2 -->
<g id="edge2" class="edge">
<title>1&#45;&gt;2</title>
<path fill="none" stroke="black" d="M308.55,-222.91C293.47,-213.11 277.25,-202.56 261.82,-192.53"/>
<polygon fill="black" stroke="black" points="263.63,-189.54 253.34,-187.02 259.82,-195.41 263.63,-189.54"/>
</g>
<!-- 5 -->
<g id="node6" class="node">
<title>5</title>
<path fill="#c0e0f7" stroke="black" d="M437,-187C437,-187 307,-187 307,-187 301,-187 295,-181 295,-175 295,-175 295,-116 295,-116 295,-110 301,-104 307,-104 307,-104 437,-104 437,-104 443,-104 449,-110 449,-116 449,-116 449,-175 449,-175 449,-181 443,-187 437,-187"/>
<text text-anchor="middle" x="372" y="-171.8" font-family="Helvetica,sans-Serif" font-size="14.00">texture_worst &lt;= 26.9</text>
<text text-anchor="middle" x="372" y="-156.8" font-family="Helvetica,sans-Serif" font-size="14.00">entropy = 0.974</text>
<text text-anchor="middle" x="372" y="-141.8" font-family="Helvetica,sans-Serif" font-size="14.00">samples = 37</text>
<text text-anchor="middle" x="372" y="-126.8" font-family="Helvetica,sans-Serif" font-size="14.00">value = [15, 22]</text>
<text text-anchor="middle" x="372" y="-111.8" font-family="Helvetica,sans-Serif" font-size="14.00">class = M</text>
</g>
<!-- 1&#45;&gt;5 -->
<g id="edge5" class="edge">
<title>1&#45;&gt;5</title>
<path fill="none" stroke="black" d="M371.35,-222.91C371.42,-214.65 371.49,-205.86 371.57,-197.3"/>
<polygon fill="black" stroke="black" points="375.07,-197.05 371.65,-187.02 368.07,-196.99 375.07,-197.05"/>
</g>
<!-- 3 -->
<g id="node4" class="node">
<title>3</title>
<path fill="#e5823a" stroke="black" d="M104,-68C104,-68 12,-68 12,-68 6,-68 0,-62 0,-56 0,-56 0,-12 0,-12 0,-6 6,0 12,0 12,0 104,0 104,0 110,0 116,-6 116,-12 116,-12 116,-56 116,-56 116,-62 110,-68 104,-68"/>
<text text-anchor="middle" x="58" y="-52.8" font-family="Helvetica,sans-Serif" font-size="14.00">entropy = 0.044</text>
<text text-anchor="middle" x="58" y="-37.8" font-family="Helvetica,sans-Serif" font-size="14.00">samples = 209</text>
<text text-anchor="middle" x="58" y="-22.8" font-family="Helvetica,sans-Serif" font-size="14.00">value = [208, 1]</text>
<text text-anchor="middle" x="58" y="-7.8" font-family="Helvetica,sans-Serif" font-size="14.00">class = B</text>
</g>
<!-- 2&#45;&gt;3 -->
<g id="edge3" class="edge">
<title>2&#45;&gt;3</title>
<path fill="none" stroke="black" d="M141.48,-103.73C129.95,-94.24 117.7,-84.16 106.24,-74.72"/>
<polygon fill="black" stroke="black" points="108.39,-71.95 98.45,-68.3 103.94,-77.36 108.39,-71.95"/>
</g>
<!-- 4 -->
<g id="node5" class="node">
<title>4</title>
<path fill="#e99558" stroke="black" d="M238,-68C238,-68 146,-68 146,-68 140,-68 134,-62 134,-56 134,-56 134,-12 134,-12 134,-6 140,0 146,0 146,0 238,0 238,0 244,0 250,-6 250,-12 250,-12 250,-56 250,-56 250,-62 244,-68 238,-68"/>
<text text-anchor="middle" x="192" y="-52.8" font-family="Helvetica,sans-Serif" font-size="14.00">entropy = 0.575</text>
<text text-anchor="middle" x="192" y="-37.8" font-family="Helvetica,sans-Serif" font-size="14.00">samples = 44</text>
<text text-anchor="middle" x="192" y="-22.8" font-family="Helvetica,sans-Serif" font-size="14.00">value = [38, 6]</text>
<text text-anchor="middle" x="192" y="-7.8" font-family="Helvetica,sans-Serif" font-size="14.00">class = B</text>
</g>
<!-- 2&#45;&gt;4 -->
<g id="edge4" class="edge">
<title>2&#45;&gt;4</title>
<path fill="none" stroke="black" d="M191.37,-103.73C191.45,-95.52 191.53,-86.86 191.6,-78.56"/>
<polygon fill="black" stroke="black" points="195.1,-78.33 191.7,-68.3 188.1,-78.27 195.1,-78.33"/>
</g>
<!-- 6 -->
<g id="node7" class="node">
<title>6</title>
<path fill="#efb388" stroke="black" d="M378,-68C378,-68 286,-68 286,-68 280,-68 274,-62 274,-56 274,-56 274,-12 274,-12 274,-6 280,0 286,0 286,0 378,0 378,0 384,0 390,-6 390,-12 390,-12 390,-56 390,-56 390,-62 384,-68 378,-68"/>
<text text-anchor="middle" x="332" y="-52.8" font-family="Helvetica,sans-Serif" font-size="14.00">entropy = 0.863</text>
<text text-anchor="middle" x="332" y="-37.8" font-family="Helvetica,sans-Serif" font-size="14.00">samples = 21</text>
<text text-anchor="middle" x="332" y="-22.8" font-family="Helvetica,sans-Serif" font-size="14.00">value = [15, 6]</text>
<text text-anchor="middle" x="332" y="-7.8" font-family="Helvetica,sans-Serif" font-size="14.00">class = B</text>
</g>
<!-- 5&#45;&gt;6 -->
<g id="edge6" class="edge">
<title>5&#45;&gt;6</title>
<path fill="none" stroke="black" d="M357.11,-103.73C354.01,-95.24 350.73,-86.28 347.61,-77.73"/>
<polygon fill="black" stroke="black" points="350.88,-76.49 344.16,-68.3 344.31,-78.89 350.88,-76.49"/>
</g>
<!-- 7 -->
<g id="node8" class="node">
<title>7</title>
<path fill="#399de5" stroke="black" d="M501.5,-68C501.5,-68 420.5,-68 420.5,-68 414.5,-68 408.5,-62 408.5,-56 408.5,-56 408.5,-12 408.5,-12 408.5,-6 414.5,0 420.5,0 420.5,0 501.5,0 501.5,0 507.5,0 513.5,-6 513.5,-12 513.5,-12 513.5,-56 513.5,-56 513.5,-62 507.5,-68 501.5,-68"/>
<text text-anchor="middle" x="461" y="-52.8" font-family="Helvetica,sans-Serif" font-size="14.00">entropy = 0.0</text>
<text text-anchor="middle" x="461" y="-37.8" font-family="Helvetica,sans-Serif" font-size="14.00">samples = 16</text>
<text text-anchor="middle" x="461" y="-22.8" font-family="Helvetica,sans-Serif" font-size="14.00">value = [0, 16]</text>
<text text-anchor="middle" x="461" y="-7.8" font-family="Helvetica,sans-Serif" font-size="14.00">class = M</text>
</g>
<!-- 5&#45;&gt;7 -->
<g id="edge7" class="edge">
<title>5&#45;&gt;7</title>
<path fill="none" stroke="black" d="M405.14,-103.73C412.48,-94.7 420.26,-85.12 427.61,-76.08"/>
<polygon fill="black" stroke="black" points="430.34,-78.27 433.93,-68.3 424.91,-73.85 430.34,-78.27"/>
</g>
<!-- 9 -->
<g id="node10" class="node">
<title>9</title>
<path fill="#b5daf5" stroke="black" d="M659,-187C659,-187 511,-187 511,-187 505,-187 499,-181 499,-175 499,-175 499,-116 499,-116 499,-110 505,-104 511,-104 511,-104 659,-104 659,-104 665,-104 671,-110 671,-116 671,-116 671,-175 671,-175 671,-181 665,-187 659,-187"/>
<text text-anchor="middle" x="585" y="-171.8" font-family="Helvetica,sans-Serif" font-size="14.00">texture_mean &lt;= 18.835</text>
<text text-anchor="middle" x="585" y="-156.8" font-family="Helvetica,sans-Serif" font-size="14.00">entropy = 0.961</text>
<text text-anchor="middle" x="585" y="-141.8" font-family="Helvetica,sans-Serif" font-size="14.00">samples = 13</text>
<text text-anchor="middle" x="585" y="-126.8" font-family="Helvetica,sans-Serif" font-size="14.00">value = [5, 8]</text>
<text text-anchor="middle" x="585" y="-111.8" font-family="Helvetica,sans-Serif" font-size="14.00">class = M</text>
</g>
<!-- 8&#45;&gt;9 -->
<g id="edge9" class="edge">
<title>8&#45;&gt;9</title>
<path fill="none" stroke="black" d="M585.65,-222.91C585.58,-214.65 585.51,-205.86 585.43,-197.3"/>
<polygon fill="black" stroke="black" points="588.93,-196.99 585.35,-187.02 581.93,-197.05 588.93,-196.99"/>
</g>
<!-- 12 -->
<g id="node13" class="node">
<title>12</title>
<path fill="#399de5" stroke="black" d="M790.5,-179.5C790.5,-179.5 701.5,-179.5 701.5,-179.5 695.5,-179.5 689.5,-173.5 689.5,-167.5 689.5,-167.5 689.5,-123.5 689.5,-123.5 689.5,-117.5 695.5,-111.5 701.5,-111.5 701.5,-111.5 790.5,-111.5 790.5,-111.5 796.5,-111.5 802.5,-117.5 802.5,-123.5 802.5,-123.5 802.5,-167.5 802.5,-167.5 802.5,-173.5 796.5,-179.5 790.5,-179.5"/>
<text text-anchor="middle" x="746" y="-164.3" font-family="Helvetica,sans-Serif" font-size="14.00">entropy = 0.0</text>
<text text-anchor="middle" x="746" y="-149.3" font-family="Helvetica,sans-Serif" font-size="14.00">samples = 123</text>
<text text-anchor="middle" x="746" y="-134.3" font-family="Helvetica,sans-Serif" font-size="14.00">value = [0, 123]</text>
<text text-anchor="middle" x="746" y="-119.3" font-family="Helvetica,sans-Serif" font-size="14.00">class = M</text>
</g>
<!-- 8&#45;&gt;12 -->
<g id="edge12" class="edge">
<title>8&#45;&gt;12</title>
<path fill="none" stroke="black" d="M641.51,-222.91C657.96,-210.88 675.94,-197.73 692.27,-185.79"/>
<polygon fill="black" stroke="black" points="694.64,-188.39 700.64,-179.67 690.51,-182.74 694.64,-188.39"/>
</g>
<!-- 10 -->
<g id="node11" class="node">
<title>10</title>
<path fill="#e58139" stroke="black" d="M623,-68C623,-68 547,-68 547,-68 541,-68 535,-62 535,-56 535,-56 535,-12 535,-12 535,-6 541,0 547,0 547,0 623,0 623,0 629,0 635,-6 635,-12 635,-12 635,-56 635,-56 635,-62 629,-68 623,-68"/>
<text text-anchor="middle" x="585" y="-52.8" font-family="Helvetica,sans-Serif" font-size="14.00">entropy = 0.0</text>
<text text-anchor="middle" x="585" y="-37.8" font-family="Helvetica,sans-Serif" font-size="14.00">samples = 5</text>
<text text-anchor="middle" x="585" y="-22.8" font-family="Helvetica,sans-Serif" font-size="14.00">value = [5, 0]</text>
<text text-anchor="middle" x="585" y="-7.8" font-family="Helvetica,sans-Serif" font-size="14.00">class = B</text>
</g>
<!-- 9&#45;&gt;10 -->
<g id="edge10" class="edge">
<title>9&#45;&gt;10</title>
<path fill="none" stroke="black" d="M585,-103.73C585,-95.52 585,-86.86 585,-78.56"/>
<polygon fill="black" stroke="black" points="588.5,-78.3 585,-68.3 581.5,-78.3 588.5,-78.3"/>
</g>
<!-- 11 -->
<g id="node12" class="node">
<title>11</title>
<path fill="#399de5" stroke="black" d="M741,-68C741,-68 665,-68 665,-68 659,-68 653,-62 653,-56 653,-56 653,-12 653,-12 653,-6 659,0 665,0 665,0 741,0 741,0 747,0 753,-6 753,-12 753,-12 753,-56 753,-56 753,-62 747,-68 741,-68"/>
<text text-anchor="middle" x="703" y="-52.8" font-family="Helvetica,sans-Serif" font-size="14.00">entropy = 0.0</text>
<text text-anchor="middle" x="703" y="-37.8" font-family="Helvetica,sans-Serif" font-size="14.00">samples = 8</text>
<text text-anchor="middle" x="703" y="-22.8" font-family="Helvetica,sans-Serif" font-size="14.00">value = [0, 8]</text>
<text text-anchor="middle" x="703" y="-7.8" font-family="Helvetica,sans-Serif" font-size="14.00">class = M</text>
</g>
<!-- 9&#45;&gt;11 -->
<g id="edge11" class="edge">
<title>9&#45;&gt;11</title>
<path fill="none" stroke="black" d="M628.94,-103.73C638.96,-94.42 649.61,-84.54 659.61,-75.26"/>
<polygon fill="black" stroke="black" points="662.17,-77.67 667.12,-68.3 657.4,-72.54 662.17,-77.67"/>
</g>
</g>
</svg>
